PathFileType	4	(X/Y/Z)	jw_ngait_og1.trc	
DataRate	CameraRate	NumFrames	NumMarkers	Units	OrigDataRate	OrigDataStartFrame	OrigNumFrames	
120.00	120.00	4	56	mm	120.00	360	327	
Frame#	Time	Sternum			Neck			RShoulder			LShoulder			Xiphoid			Thoracic			RAsis			LAsis			RPsis			LPsis			Lumbar			RElbow			RWrist			RRadius			RUlna			LElbow			LWrist			LUlna			LRadius			LThighSuperior			LThighInferior			LThighLateral			LPatella			LShankSuperior			LShankInferior			LShankLateral			RThighSuperior			RThighInferior			RThighLateral			RPatella			RShankSuperior			RShankInferior			RShankLateral			RHeel			RToe			RMidfootMedial			RMidfootLateral			RHindfoot			RMidfootSuperior			RToeMedial			RToeLateral			LHeel			LToe			LMidfootMedial			LMidfootLateral			LHindfoot			LMidfootSuperior			LToeMedial			LToeLateral			LShoulderCenter			Oglobal			RShoulderCenter			Sacral			Xglobal			Yglobal			Zglobal			
		X1	Y1	Z1	X2	Y2	Z2	X3	Y3	Z3	X4	Y4	Z4	X5	Y5	Z5	X6	Y6	Z6	X7	Y7	Z7	X8	Y8	Z8	X9	Y9	Z9	X10	Y10	Z10	X11	Y11	Z11	X12	Y12	Z12	X13	Y13	Z13	X14	Y14	Z14	X15	Y15	Z15	X16	Y16	Z16	X17	Y17	Z17	X18	Y18	Z18	X19	Y19	Z19	X20	Y20	Z20	X21	Y21	Z21	X22	Y22	Z22	X23	Y23	Z23	X24	Y24	Z24	X25	Y25	Z25	X26	Y26	Z26	X27	Y27	Z27	X28	Y28	Z28	X29	Y29	Z29	X30	Y30	Z30	X31	Y31	Z31	X32	Y32	Z32	X33	Y33	Z33	X34	Y34	Z34	X35	Y35	Z35	X36	Y36	Z36	X37	Y37	Z37	X38	Y38	Z38	X39	Y39	Z39	X40	Y40	Z40	X41	Y41	Z41	X42	Y42	Z42	X43	Y43	Z43	X44	Y44	Z44	X45	Y45	Z45	X46	Y46	Z46	X47	Y47	Z47	X48	Y48	Z48	X49	Y49	Z49	X50	Y50	Z50	X51	Y51	Z51	X52	Y52	Z52	X53	Y53	Z53	X54	Y54	Z54	X55	Y55	Z55	X56	Y56	Z56	

246	2.042	-900.30426	171.22754	1340.53735	-762.26776	170.77968	1449.25964	-816.20343	347.49533	1391.29126	-829.48108	-15.48590	1404.96008	-898.79541	161.59172	1223.31116	-677.51721	145.83914	1258.62720	-885.33105	283.78189	997.38257	-882.50183	10.95343	983.99548	-672.27917	165.89784	971.58624	-671.02863	106.20505	969.68842	-674.89136	140.48955	1040.42480	-737.44183	423.45697	1063.92590	-812.75171	411.16315	807.60248	-831.97894	376.46591	815.35303	-764.51050	406.24075	808.56757	-790.42200	-108.04156	1083.34729	-907.65625	-113.09111	834.27948	-858.76764	-110.48071	822.00720	-916.16272	-76.78104	858.97968	-835.51154	-38.29429	795.57050	-869.50989	-26.18401	546.02423	-915.11438	-7.30712	666.02832	-898.00006	17.90119	445.19296	-783.50525	-21.33519	435.09424	-572.95258	12.99883	295.76971	-703.11584	50.45178	334.84134	-865.60596	312.79724	801.22809	-954.30707	264.46634	582.13824	-972.53027	248.18486	684.46698	-997.89655	217.11580	522.40918	-904.00879	284.90549	387.16577	-934.71509	234.96413	157.34486	-968.25867	197.29643	262.14841	-847.20691	191.09593	47.44834	-1143.27795	244.49783	49.85390	-1068.53625	176.98828	40.22997	-1036.37134	287.17618	45.28365	-957.64288	274.54788	24.57822	-1015.77539	218.31555	110.00789	-1106.64465	195.84264	39.01672	-1095.60730	282.72641	45.64505	-444.20905	75.00852	320.30450	-512.15900	48.60423	31.57896	-496.08771	114.28687	114.08590	-450.06155	-1.26469	122.13111	-418.95609	21.92422	216.40083	-535.71594	35.29721	169.76140	-507.92389	91.37228	69.67491	-471.65686	10.64079	75.50584	-803.31476	-7.50857	1359.16870	0.00000	0.00000	0.00000	-792.22028	344.10995	1346.75684	-671.65393	136.05145	970.63733	200.00000	0.00000	0.00000	0.00000	200.00000	0.00000	0.00000	0.00000	200.00000 
247	2.050	-911.28290	171.17117	1342.09619	-773.59216	170.73508	1451.27368	-827.77600	347.69434	1393.40588	-839.88684	-15.56014	1405.89990	-909.55768	162.09106	1224.66455	-688.07196	147.06967	1260.83923	-895.28992	283.97855	998.30542	-891.67957	11.32782	985.33221	-681.90930	167.59978	973.95563	-680.31049	107.96291	971.99268	-684.71423	141.39198	1042.69214	-747.92560	424.62097	1066.76428	-822.92926	412.05508	810.13806	-842.29980	377.53458	818.20172	-774.97839	407.25568	811.16980	-798.26672	-107.03665	1084.42200	-912.26343	-111.86126	833.61359	-862.99744	-108.99487	821.97858	-921.47791	-75.77335	858.10480	-848.32898	-37.43446	797.47540	-891.58093	-24.47706	549.29639	-932.90491	-4.39632	669.66077	-921.52484	21.03629	448.84631	-808.07391	-19.67103	436.96811	-595.90448	13.38953	299.79483	-727.82599	50.77263	338.41803	-874.54144	313.51849	802.66003	-959.08783	264.55188	581.79974	-978.98029	247.98354	683.72015	-1001.52258	216.93271	521.53235	-906.78204	284.93015	387.38785	-935.27515	234.91867	157.14571	-969.67926	197.06506	261.82159	-847.12708	190.99051	47.33569	-1143.19983	244.34839	49.61132	-1068.44861	176.91528	39.81872	-1036.28259	287.08847	45.17688	-957.72461	274.51773	24.62489	-1015.92688	218.09583	109.81788	-1106.82361	195.75818	38.87852	-1095.70239	282.65729	45.54479	-463.09915	69.37800	324.42218	-539.63733	55.97395	36.25237	-518.31366	118.06190	121.09600	-478.35886	0.03987	124.21250	-443.09448	18.13936	217.81633	-560.39911	39.56381	175.71982	-532.76636	96.59672	76.26128	-500.52505	14.29579	78.22278	-813.75531	-7.29744	1360.48096	0.00000	0.00000	0.00000	-803.79980	344.39352	1349.20776	-681.10986	137.78134	972.97412	200.00000	0.00000	0.00000	0.00000	200.00000	0.00000	0.00000	0.00000	200.00000 
248	2.058	-922.35095	171.11050	1343.44238	-784.93579	170.75720	1453.16077	-839.60645	347.69363	1395.68030	-850.27130	-15.70924	1406.79150	-920.07648	162.23512	1226.15674	-698.59570	148.44815	1262.83752	-905.55908	284.39148	999.60522	-900.58936	11.61142	986.48462	-691.47180	169.42429	976.07745	-689.57568	109.81789	974.04004	-694.48053	142.70923	1044.74695	-758.58673	425.79141	1069.50415	-833.26874	413.08759	812.96960	-852.55768	378.37360	820.59338	-785.18201	408.41122	813.74738	-806.23285	-105.67332	1085.05261	-916.76630	-110.46333	832.62579	-867.62793	-107.28416	821.67810	-925.52740	-73.77513	856.71893	-860.79358	-36.59475	799.38617	-913.65234	-22.45435	553.10693	-950.54004	-0.99341	673.68262	-945.00732	24.28684	453.13177	-832.02191	-17.97233	439.58334	-619.61853	14.53595	302.71527	-752.08148	51.90447	343.04938	-883.15326	314.03922	803.83459	-963.72919	264.62073	581.51660	-985.10809	247.86835	683.21375	-1005.23828	216.72444	520.98419	-909.47400	285.04480	387.61905	-936.05731	234.81049	157.16232	-971.26361	196.95287	261.49826	-847.20105	190.97122	47.53085	-1143.35266	244.30739	49.15879	-1068.49976	176.81456	39.51108	-1036.38928	286.99628	45.02517	-957.69806	274.49365	24.57437	-1016.12244	217.95767	109.64822	-1107.01697	195.61777	38.62187	-1095.78772	282.58203	45.32548	-482.45090	62.92532	325.99701	-570.19604	62.72781	41.45112	-541.57837	121.33911	126.36718	-509.31329	0.96006	124.59377	-469.65137	14.02589	217.71483	-586.53162	44.07347	180.51762	-559.07098	101.67361	81.79181	-532.99261	16.66790	81.05643	-824.15479	-7.02492	1361.49695	0.00000	0.00000	0.00000	-815.60370	344.74323	1351.55835	-690.52374	139.62109	975.05872	200.00000	0.00000	0.00000	0.00000	200.00000	0.00000	0.00000	0.00000	200.00000 
249	2.067	-933.31213	170.89166	1344.63086	-796.16241	170.66992	1454.98022	-851.50482	347.73364	1397.83301	-860.45172	-15.84427	1407.55896	-930.37714	162.13535	1227.26672	-709.06598	149.80817	1264.91565	-916.11279	285.01544	1000.90729	-909.41724	11.88355	987.77112	-701.04230	171.26678	978.12927	-698.80273	111.60830	975.99432	-704.31934	144.43216	1046.74817	-769.32513	426.89713	1071.99683	-843.55133	413.79507	815.28864	-863.03137	379.41193	823.25775	-795.69269	409.40295	816.14844	-814.28479	-104.39098	1085.92627	-920.92908	-109.30729	832.03845	-871.75934	-105.52386	821.73975	-930.27448	-72.65736	855.95367	-873.20483	-35.57975	801.39227	-935.16675	-20.45756	557.36060	-968.06616	2.36893	677.91406	-968.12927	27.36798	457.86649	-855.78754	-16.33547	442.73187	-643.62933	15.59383	304.94379	-774.80713	54.70855	347.34637	-891.67230	314.67728	804.75201	-968.27631	264.58453	581.34076	-991.15320	247.52353	682.59009	-1008.55634	216.52966	520.36115	-912.17151	285.19125	387.84241	-936.78070	234.73892	157.14316	-972.55084	196.77139	261.15445	-847.27466	190.99854	47.63388	-1143.42664	244.33994	48.84114	-1068.55640	176.81599	39.20417	-1036.47424	286.99557	44.92153	-957.71057	274.48404	24.62268	-1016.31079	217.87454	109.48869	-1107.22681	195.57449	38.39445	-1096.02271	282.48651	45.13545	-501.95786	57.05311	326.53076	-601.83423	68.66704	45.67326	-565.35425	123.27855	130.68544	-541.05615	1.14532	125.35872	-497.30624	9.65817	216.30940	-613.31744	47.90429	184.81554	-586.47400	105.86118	86.35098	-566.25745	19.55529	82.45554	-834.32159	-6.83318	1362.39111	0.00000	0.00000	0.00000	-827.43854	345.00677	1353.78906	-699.92249	141.43755	977.06177	200.00000	0.00000	0.00000	0.00000	200.00000	0.00000	0.00000	0.00000	200.00000 
